<svg width="28" height="28" viewBox="0 0 28 28" fill="none" xmlns="http://www.w3.org/2000/svg">
<path fill-rule="evenodd" clip-rule="evenodd" d="M13.9393 1.45837H14.0606C15.1083 1.45837 15.9833 1.45837 16.6763 1.55171C17.409 1.64971 18.0705 1.86671 18.6013 2.39871C19.1333 2.92954 19.3503 3.59104 19.4483 4.32371C19.516 4.82071 19.5346 6.00954 19.5393 7.03037C21.8983 7.10737 23.3158 7.38271 24.2993 8.36737C25.6666 9.73354 25.6666 11.9339 25.6666 16.3334C25.6666 20.7329 25.6666 22.9332 24.2993 24.2994C22.9331 25.6667 20.7328 25.6667 16.3333 25.6667H11.6666C7.26715 25.6667 5.06681 25.6667 3.70065 24.2994C2.33331 22.9332 2.33331 20.7329 2.33331 16.3334C2.33331 11.9339 2.33331 9.73354 3.70065 8.36737C4.68415 7.38271 6.10165 7.10737 8.46065 7.02921C8.46531 6.00954 8.48515 4.82071 8.55165 4.32254C8.64965 3.59104 8.86665 2.92954 9.39865 2.39754C9.92948 1.86671 10.591 1.64971 11.3236 1.55171C12.0166 1.45837 12.8905 1.45837 13.9393 1.45837ZM17.7146 4.55587C17.7671 4.95137 17.7835 6.01421 17.7893 7.00237C17.3331 7.00004 16.8478 7.00004 16.3333 7.00004H11.6666C11.1533 7.00004 10.6668 7.00004 10.2106 7.00237C10.2153 6.01421 10.2328 4.95254 10.2853 4.55587C10.3588 4.01804 10.4836 3.78821 10.6353 3.63654C10.787 3.48371 11.018 3.35887 11.5558 3.28654C12.1193 3.21071 12.8753 3.20837 14 3.20837C15.1246 3.20837 15.8806 3.21071 16.443 3.28537C16.982 3.35887 17.213 3.48371 17.3646 3.63537C17.5163 3.78704 17.6411 4.01804 17.7146 4.55587Z" fill="white"/>
<path d="M13.08 12.888C13.424 13.44 13.672 14.032 13.824 14.664C14.088 14.512 14.412 14.436 14.796 14.436C15.292 14.436 15.8 14.568 16.32 14.832C16.84 15.088 17.272 15.432 17.616 15.864C17.96 16.296 18.132 16.76 18.132 17.256C18.132 17.6 18.028 17.92 17.82 18.216C17.62 18.504 17.34 18.74 16.98 18.924C16.628 19.1 16.228 19.192 15.78 19.2L14.796 18.408V17.892C14.956 17.916 15.108 17.928 15.252 17.928C15.636 17.928 15.928 17.812 16.128 17.58C16.336 17.34 16.44 17.036 16.44 16.668C16.44 16.284 16.364 15.988 16.212 15.78C16.06 15.572 15.832 15.468 15.528 15.468C15.272 15.468 15.044 15.532 14.844 15.66C14.644 15.788 14.48 15.932 14.352 16.092C14.232 16.252 14.06 16.5 13.836 16.836C13.716 17.228 13.532 17.564 13.284 17.844C13.036 18.116 12.776 18.304 12.504 18.408L15.456 20.88L15.036 21.372L11.028 18.024C10.692 17.784 10.404 17.504 10.164 17.184C9.924 16.864 9.804 16.588 9.804 16.356C9.804 16.132 9.892 15.964 10.068 15.852C10.252 15.732 10.504 15.672 10.824 15.672C11.216 15.672 11.668 15.744 12.18 15.888C12.228 15.648 12.252 15.388 12.252 15.108C12.252 14.724 12.204 14.332 12.108 13.932C12.02 13.532 11.904 13.18 11.76 12.876H8.736L7.668 12.084V11.568H19.092L20.1 12.36V12.876L13.08 12.888Z" fill="#083877"/>
</svg>
