<svg width="40" height="40" viewBox="0 0 40 40" fill="none" xmlns="http://www.w3.org/2000/svg">
<rect width="40" height="40" rx="6" fill="#F1F6FE"/>
<path fill-rule="evenodd" clip-rule="evenodd" d="M19.9393 7.45834H20.0606C21.1083 7.45834 21.9833 7.45834 22.6763 7.55168C23.409 7.64968 24.0705 7.86668 24.6013 8.39868C25.1333 8.92951 25.3503 9.59101 25.4483 10.3237C25.516 10.8207 25.5346 12.0095 25.5393 13.0303C27.8983 13.1073 29.3158 13.3827 30.2993 14.3673C31.6666 15.7335 31.6666 17.9338 31.6666 22.3333C31.6666 26.7328 31.6666 28.9332 30.2993 30.2993C28.9331 31.6667 26.7328 31.6667 22.3333 31.6667H17.6666C13.2671 31.6667 11.0668 31.6667 9.70065 30.2993C8.33331 28.9332 8.33331 26.7328 8.33331 22.3333C8.33331 17.9338 8.33331 15.7335 9.70065 14.3673C10.6841 13.3827 12.1016 13.1073 14.4606 13.0292C14.4653 12.0095 14.4851 10.8207 14.5516 10.3225C14.6496 9.59101 14.8666 8.92951 15.3986 8.39751C15.9295 7.86668 16.591 7.64968 17.3236 7.55168C18.0166 7.45834 18.8905 7.45834 19.9393 7.45834ZM23.7146 10.5558C23.7671 10.9513 23.7835 12.0142 23.7893 13.0023C23.3331 13 22.8478 13 22.3333 13H17.6666C17.1533 13 16.6668 13 16.2106 13.0023C16.2153 12.0142 16.2328 10.9525 16.2853 10.5558C16.3588 10.018 16.4836 9.78818 16.6353 9.63651C16.787 9.48368 17.018 9.35884 17.5558 9.28651C18.1193 9.21068 18.8753 9.20834 20 9.20834C21.1246 9.20834 21.8806 9.21068 22.443 9.28534C22.982 9.35884 23.213 9.48368 23.3646 9.63534C23.5163 9.78701 23.6411 10.018 23.7146 10.5558Z" fill="#7994B7"/>
<path d="M19.08 18.888C19.424 19.44 19.672 20.032 19.824 20.664C20.088 20.512 20.412 20.436 20.796 20.436C21.292 20.436 21.8 20.568 22.32 20.832C22.84 21.088 23.272 21.432 23.616 21.864C23.96 22.296 24.132 22.76 24.132 23.256C24.132 23.6 24.028 23.92 23.82 24.216C23.62 24.504 23.34 24.74 22.98 24.924C22.628 25.1 22.228 25.192 21.78 25.2L20.796 24.408V23.892C20.956 23.916 21.108 23.928 21.252 23.928C21.636 23.928 21.928 23.812 22.128 23.58C22.336 23.34 22.44 23.036 22.44 22.668C22.44 22.284 22.364 21.988 22.212 21.78C22.06 21.572 21.832 21.468 21.528 21.468C21.272 21.468 21.044 21.532 20.844 21.66C20.644 21.788 20.48 21.932 20.352 22.092C20.232 22.252 20.06 22.5 19.836 22.836C19.716 23.228 19.532 23.564 19.284 23.844C19.036 24.116 18.776 24.304 18.504 24.408L21.456 26.88L21.036 27.372L17.028 24.024C16.692 23.784 16.404 23.504 16.164 23.184C15.924 22.864 15.804 22.588 15.804 22.356C15.804 22.132 15.892 21.964 16.068 21.852C16.252 21.732 16.504 21.672 16.824 21.672C17.216 21.672 17.668 21.744 18.18 21.888C18.228 21.648 18.252 21.388 18.252 21.108C18.252 20.724 18.204 20.332 18.108 19.932C18.02 19.532 17.904 19.18 17.76 18.876H14.736L13.668 18.084V17.568H25.092L26.1 18.36V18.876L19.08 18.888Z" fill="white"/>
</svg>
