<svg width="18" height="18" viewBox="0 0 18 18" fill="none" xmlns="http://www.w3.org/2000/svg">
<path d="M9.24999 0.666626C13.8333 0.666626 17.5833 4.41663 17.5833 8.99996C17.5833 13.5833 13.8333 17.3333 9.24999 17.3333C4.66666 17.3333 0.916656 13.5833 0.916656 8.99996C0.916656 4.41663 4.66666 0.666626 9.24999 0.666626ZM9.24999 2.33329C7.66666 2.33329 6.24999 2.83329 5.16666 3.74996L14.5 13.0833C15.3333 11.9166 15.9167 10.5 15.9167 8.99996C15.9167 5.33329 12.9167 2.33329 9.24999 2.33329ZM13.3333 14.25L3.99999 4.91663C3.08332 5.99996 2.58332 7.41663 2.58332 8.99996C2.58332 12.6666 5.58332 15.6666 9.24999 15.6666C10.8333 15.6666 12.25 15.1666 13.3333 14.25Z" fill="#C1230D"/>
</svg>
