<svg width="64" height="64" viewBox="0 0 64 64" fill="none" xmlns="http://www.w3.org/2000/svg">
<circle cx="32" cy="32" r="32" fill="#E7F1FD"/>
<path d="M42 31.3333H22V23H42M39.5 41.3333C38.837 41.3333 38.2011 41.0699 37.7323 40.6011C37.2634 40.1323 37 39.4964 37 38.8333C37 38.1703 37.2634 37.5344 37.7323 37.0656C38.2011 36.5967 38.837 36.3333 39.5 36.3333C40.1631 36.3333 40.7989 36.5967 41.2678 37.0656C41.7366 37.5344 42 38.1703 42 38.8333C42 39.4964 41.7366 40.1323 41.2678 40.6011C40.7989 41.0699 40.1631 41.3333 39.5 41.3333ZM24.5 41.3333C23.837 41.3333 23.2011 41.0699 22.7323 40.6011C22.2634 40.1323 22 39.4964 22 38.8333C22 38.1703 22.2634 37.5344 22.7323 37.0656C23.2011 36.5967 23.837 36.3333 24.5 36.3333C25.1631 36.3333 25.7989 36.5967 26.2678 37.0656C26.7366 37.5344 27 38.1703 27 38.8333C27 39.4964 26.7366 40.1323 26.2678 40.6011C25.7989 41.0699 25.1631 41.3333 24.5 41.3333ZM18.6667 39.6667C18.6667 41.1333 19.3167 42.45 20.3334 43.3667V46.3333C20.3334 46.7754 20.5089 47.1993 20.8215 47.5119C21.1341 47.8244 21.558 48 22 48H23.6667C24.1087 48 24.5326 47.8244 24.8452 47.5119C25.1578 47.1993 25.3334 46.7754 25.3334 46.3333V44.6667H38.6667V46.3333C38.6667 46.7754 38.8423 47.1993 39.1548 47.5119C39.4674 47.8244 39.8913 48 40.3333 48H42C42.442 48 42.866 47.8244 43.1785 47.5119C43.4911 47.1993 43.6667 46.7754 43.6667 46.3333V43.3667C44.6833 42.45 45.3333 41.1333 45.3333 39.6667V23C45.3333 17.1667 39.3667 16.3333 32 16.3333C24.6334 16.3333 18.6667 17.1667 18.6667 23V39.6667Z" fill="#072D5F"/>
</svg>
