<svg width="28" height="28" viewBox="0 0 28 28" fill="none" xmlns="http://www.w3.org/2000/svg">
<path d="M25.6667 8.16669V18.6667C25.6667 19.495 25.2233 20.2534 24.5 20.6734V22.4584C24.5 22.9367 24.1033 23.3334 23.625 23.3334H23.0417C22.5633 23.3334 22.1667 22.9367 22.1667 22.4584V21H14V22.4584C14 22.9367 13.6033 23.3334 13.125 23.3334H12.5417C12.0633 23.3334 11.6667 22.9367 11.6667 22.4584V20.6734C10.955 20.2534 10.5 19.495 10.5 18.6667V8.16669C10.5 4.66669 14 4.66669 18.0833 4.66669C22.1667 4.66669 25.6667 4.66669 25.6667 8.16669ZM15.1667 17.5C15.1667 16.8584 14.6417 16.3334 14 16.3334C13.3583 16.3334 12.8333 16.8584 12.8333 17.5C12.8333 18.1417 13.3583 18.6667 14 18.6667C14.6417 18.6667 15.1667 18.1417 15.1667 17.5ZM23.3333 17.5C23.3333 16.8584 22.8083 16.3334 22.1667 16.3334C21.525 16.3334 21 16.8584 21 17.5C21 18.1417 21.525 18.6667 22.1667 18.6667C22.8083 18.6667 23.3333 18.1417 23.3333 17.5ZM23.3333 8.16669H12.8333V12.8334H23.3333V8.16669ZM8.16667 11.0834C8.13167 9.47335 6.80167 8.16669 5.19167 8.22502C4.41817 8.24064 3.68254 8.56282 3.14653 9.12071C2.61053 9.67859 2.31802 10.4265 2.33334 11.2C2.34857 11.8617 2.58755 12.4988 3.01129 13.0073C3.43503 13.5158 4.01854 13.8657 4.66667 14V23.3334H5.83334V14C7.21 13.72 8.16667 12.495 8.16667 11.0834Z" fill="#072D5F"/>
</svg>
