<svg width="20" height="20" viewBox="0 0 20 20" fill="none" xmlns="http://www.w3.org/2000/svg">
<path d="M3.33334 17.5V12.5H16.6667V17.5H15V14.1667H5V17.5H3.33334ZM3.75 11.6667C3.40278 11.6667 3.1075 11.545 2.86417 11.3017C2.62084 11.0583 2.49945 10.7633 2.5 10.4167C2.5 10.0694 2.62167 9.77417 2.865 9.53084C3.10834 9.2875 3.40334 9.16611 3.75 9.16667C4.09722 9.16667 4.3925 9.28833 4.63584 9.53167C4.87917 9.775 5.00056 10.07 5 10.4167C5 10.7639 4.87834 11.0592 4.635 11.3025C4.39167 11.5458 4.09667 11.6672 3.75 11.6667ZM5.83334 11.6667V4.16667C5.83334 3.70833 5.99667 3.31583 6.32334 2.98917C6.65 2.6625 7.04222 2.49945 7.5 2.5H12.5C12.9583 2.5 13.3508 2.66333 13.6775 2.99C14.0042 3.31667 14.1672 3.70889 14.1667 4.16667V11.6667H5.83334ZM16.25 11.6667C15.9028 11.6667 15.6075 11.545 15.3642 11.3017C15.1208 11.0583 14.9994 10.7633 15 10.4167C15 10.0694 15.1217 9.77417 15.365 9.53084C15.6083 9.2875 15.9033 9.16611 16.25 9.16667C16.5972 9.16667 16.8925 9.28833 17.1358 9.53167C17.3792 9.775 17.5006 10.07 17.5 10.4167C17.5 10.7639 17.3783 11.0592 17.135 11.3025C16.8917 11.5458 16.5967 11.6672 16.25 11.6667ZM7.5 10H12.5V4.16667H7.5V10Z" fill="#7994B7"/>
</svg>
