<svg width="17" height="13" viewBox="0 0 17 13" fill="none" xmlns="http://www.w3.org/2000/svg">
<path d="M14.4429 0C15.1059 0 15.7418 0.263392 16.2106 0.732233C16.6795 1.20107 16.9429 1.83696 16.9429 2.5V10.5C16.9429 11.163 16.6795 11.7989 16.2106 12.2678C15.7418 12.7366 15.1059 13 14.4429 13H3.44287C2.77983 13 2.14395 12.7366 1.6751 12.2678C1.20626 11.7989 0.942871 11.163 0.942871 10.5V2.5C0.942871 1.83696 1.20626 1.20107 1.6751 0.732233C2.14395 0.263392 2.77983 0 3.44287 0H14.4429ZM15.9429 3.961L9.19687 7.931C9.13309 7.96845 9.0618 7.99128 8.98814 7.99785C8.91447 8.00442 8.84027 7.99457 8.77087 7.969L8.68887 7.931L1.94287 3.963V10.5C1.94287 10.8978 2.10091 11.2794 2.38221 11.5607C2.66352 11.842 3.04505 12 3.44287 12H14.4429C14.8407 12 15.2222 11.842 15.5035 11.5607C15.7848 11.2794 15.9429 10.8978 15.9429 10.5V3.961ZM14.4429 1H3.44287C3.04505 1 2.66352 1.15804 2.38221 1.43934C2.10091 1.72064 1.94287 2.10218 1.94287 2.5V2.802L8.94287 6.92L15.9429 2.8V2.5C15.9429 2.10218 15.7848 1.72064 15.5035 1.43934C15.2222 1.15804 14.8407 1 14.4429 1Z" fill="#7994B7"/>
</svg>
