<svg width="21" height="20" viewBox="0 0 21 20" fill="none" xmlns="http://www.w3.org/2000/svg">
<g clip-path="url(#clip0_690_730)">
<path d="M20.0711 9.74688C20.0437 9.68516 19.382 8.21719 17.9109 6.74609C15.9508 4.78594 13.475 3.75 10.75 3.75C8.02499 3.75 5.54921 4.78594 3.58905 6.74609C2.11796 8.21719 1.45312 9.6875 1.4289 9.74688C1.39336 9.82681 1.375 9.91331 1.375 10.0008C1.375 10.0883 1.39336 10.1748 1.4289 10.2547C1.45624 10.3164 2.11796 11.7836 3.58905 13.2547C5.54921 15.2141 8.02499 16.25 10.75 16.25C13.475 16.25 15.9508 15.2141 17.9109 13.2547C19.382 11.7836 20.0437 10.3164 20.0711 10.2547C20.1066 10.1748 20.125 10.0883 20.125 10.0008C20.125 9.91331 20.1066 9.82681 20.0711 9.74688ZM10.75 15C8.3453 15 6.24452 14.1258 4.50546 12.4023C3.7919 11.6927 3.18483 10.8836 2.70312 10C3.1847 9.11636 3.79179 8.30717 4.50546 7.59766C6.24452 5.87422 8.3453 5 10.75 5C13.1547 5 15.2555 5.87422 16.9945 7.59766C17.7095 8.307 18.3179 9.11619 18.8008 10C18.2375 11.0516 15.7836 15 10.75 15ZM10.75 6.25C10.0083 6.25 9.28329 6.46993 8.6666 6.88199C8.04992 7.29404 7.56927 7.87971 7.28544 8.56494C7.00162 9.25016 6.92735 10.0042 7.07205 10.7316C7.21674 11.459 7.57389 12.1272 8.09834 12.6517C8.62279 13.1761 9.29097 13.5333 10.0184 13.6779C10.7458 13.8226 11.4998 13.7484 12.1851 13.4645C12.8703 13.1807 13.4559 12.7001 13.868 12.0834C14.2801 11.4667 14.5 10.7417 14.5 10C14.499 9.00576 14.1035 8.05253 13.4005 7.34949C12.6975 6.64645 11.7442 6.25103 10.75 6.25ZM10.75 12.5C10.2555 12.5 9.77219 12.3534 9.36107 12.0787C8.94994 11.804 8.62951 11.4135 8.44029 10.9567C8.25107 10.4999 8.20157 9.99723 8.29803 9.51227C8.39449 9.02732 8.63259 8.58186 8.98222 8.23223C9.33186 7.8826 9.77731 7.6445 10.2623 7.54804C10.7472 7.45157 11.2499 7.50108 11.7067 7.6903C12.1635 7.87952 12.554 8.19995 12.8287 8.61107C13.1034 9.0222 13.25 9.50555 13.25 10C13.25 10.663 12.9866 11.2989 12.5178 11.7678C12.0489 12.2366 11.413 12.5 10.75 12.5Z" fill="#072D5F"/>
</g>
<defs>
<clipPath id="clip0_690_730">
<rect width="20" height="20" fill="white" transform="translate(0.75)"/>
</clipPath>
</defs>
</svg>
