<svg width="28" height="28" viewBox="0 0 28 28" fill="none" xmlns="http://www.w3.org/2000/svg">
<path d="M14 4.66669C15.2376 4.66669 16.4246 5.15835 17.2998 6.03352C18.175 6.90869 18.6666 8.09568 18.6666 9.33335C18.6666 10.571 18.175 11.758 17.2998 12.6332C16.4246 13.5084 15.2376 14 14 14C12.7623 14 11.5753 13.5084 10.7001 12.6332C9.82496 11.758 9.33329 10.571 9.33329 9.33335C9.33329 8.09568 9.82496 6.90869 10.7001 6.03352C11.5753 5.15835 12.7623 4.66669 14 4.66669ZM14 16.3334C19.1566 16.3334 23.3333 18.4217 23.3333 21V23.3334H4.66663V21C4.66663 18.4217 8.84329 16.3334 14 16.3334Z" fill="#072D5F"/>
</svg>
