<svg width="40" height="40" viewBox="0 0 40 40" fill="none" xmlns="http://www.w3.org/2000/svg">
<rect width="40" height="40" rx="6" fill="#F1F6FE"/>
<path d="M20 8.33333C13.56 8.33333 8.33333 13.56 8.33333 20C8.33333 26.44 13.56 31.6667 20 31.6667C26.44 31.6667 31.6667 26.44 31.6667 20C31.6667 13.56 26.44 8.33333 20 8.33333ZM15.3333 26.4167C14.5598 26.4167 13.8179 26.1094 13.2709 25.5624C12.724 25.0154 12.4167 24.2735 12.4167 23.5C12.4167 22.7264 12.724 21.9846 13.2709 21.4376C13.8179 20.8906 14.5598 20.5833 15.3333 20.5833C16.1069 20.5833 16.8487 20.8906 17.3957 21.4376C17.9427 21.9846 18.25 22.7264 18.25 23.5C18.25 24.2735 17.9427 25.0154 17.3957 25.5624C16.8487 26.1094 16.1069 26.4167 15.3333 26.4167ZM17.0833 15.3333C17.0833 14.5598 17.3906 13.8179 17.9376 13.2709C18.4846 12.724 19.2264 12.4167 20 12.4167C20.7735 12.4167 21.5154 12.724 22.0624 13.2709C22.6094 13.8179 22.9167 14.5598 22.9167 15.3333C22.9167 16.1069 22.6094 16.8487 22.0624 17.3957C21.5154 17.9427 20.7735 18.25 20 18.25C19.2264 18.25 18.4846 17.9427 17.9376 17.3957C17.3906 16.8487 17.0833 16.1069 17.0833 15.3333ZM24.6667 26.4167C23.8931 26.4167 23.1512 26.1094 22.6043 25.5624C22.0573 25.0154 21.75 24.2735 21.75 23.5C21.75 22.7264 22.0573 21.9846 22.6043 21.4376C23.1512 20.8906 23.8931 20.5833 24.6667 20.5833C25.4402 20.5833 26.1821 20.8906 26.7291 21.4376C27.276 21.9846 27.5833 22.7264 27.5833 23.5C27.5833 24.2735 27.276 25.0154 26.7291 25.5624C26.1821 26.1094 25.4402 26.4167 24.6667 26.4167Z" fill="#7994B7"/>
</svg>
