<svg width="21" height="20" viewBox="0 0 21 20" fill="none" xmlns="http://www.w3.org/2000/svg">
<path fill-rule="evenodd" clip-rule="evenodd" d="M16.4594 5.37603C16.5306 5.30485 16.5872 5.22034 16.6258 5.12731C16.6644 5.03428 16.6843 4.93456 16.6843 4.83384C16.6844 4.73312 16.6646 4.63337 16.6261 4.54029C16.5877 4.44721 16.5312 4.36263 16.46 4.29136C16.3889 4.2201 16.3043 4.16355 16.2113 4.12495C16.1183 4.08635 16.0186 4.06645 15.9178 4.06639C15.8171 4.06633 15.7174 4.0861 15.6243 4.12459C15.5312 4.16308 15.4466 4.21952 15.3754 4.2907L10.75 8.91603L6.12603 4.2907C5.98211 4.14677 5.7869 4.06592 5.58336 4.06592C5.37983 4.06592 5.18462 4.14677 5.0407 4.2907C4.89677 4.43462 4.81592 4.62983 4.81592 4.83336C4.81592 5.0369 4.89677 5.23211 5.0407 5.37603L9.66603 10L5.0407 14.624C4.96943 14.6953 4.9129 14.7799 4.87434 14.873C4.83577 14.9661 4.81592 15.0659 4.81592 15.1667C4.81592 15.2675 4.83577 15.3673 4.87434 15.4604C4.9129 15.5535 4.96943 15.6381 5.0407 15.7094C5.18462 15.8533 5.37982 15.9341 5.58336 15.9341C5.68415 15.9341 5.78394 15.9143 5.87705 15.8757C5.97016 15.8372 6.05477 15.7806 6.12603 15.7094L10.75 11.084L15.3754 15.7094C15.5193 15.8531 15.7144 15.9338 15.9178 15.9337C16.1213 15.9335 16.3163 15.8526 16.46 15.7087C16.6038 15.5648 16.6845 15.3696 16.6843 15.1662C16.6842 14.9628 16.6033 14.7678 16.4594 14.624L11.834 10L16.4594 5.37603Z" fill="#C1230D"/>
</svg>
