<svg width="21" height="20" viewBox="0 0 21 20" fill="none" xmlns="http://www.w3.org/2000/svg">
<path d="M10.9167 5.75C12.4 5.75 12.95 6.45833 13 7.5H14.8417C14.7833 6.06667 13.9083 4.75 12.1667 4.325V2.5H9.66667V4.3C9.225 4.4 8.80833 4.55 8.43333 4.75L9.65833 5.975C10 5.83333 10.4167 5.75 10.9167 5.75ZM4.94166 3.38333L3.88333 4.44167L6.75 7.30833C6.75 9.04167 8.05 9.98333 10.0083 10.5667L12.9333 13.4917C12.65 13.8917 12.0583 14.25 10.9167 14.25C9.2 14.25 8.525 13.4833 8.43333 12.5H6.6C6.7 14.325 8.06666 15.35 9.66667 15.6917V17.5H12.1667V15.7083C12.9667 15.5583 13.6833 15.25 14.2083 14.775L16.0583 16.625L17.1167 15.5667L4.94166 3.38333Z" fill="#C1230D"/>
</svg>
