<svg width="40" height="40" viewBox="0 0 40 40" fill="none" xmlns="http://www.w3.org/2000/svg">
<rect width="40" height="40" rx="6" fill="#F1F6FE"/>
<path fill-rule="evenodd" clip-rule="evenodd" d="M13.1657 13.1657C16.388 9.9445 17.998 8.33333 20 8.33333C22.002 8.33333 23.612 9.94333 26.8343 13.1657C30.0555 16.388 31.6667 17.998 31.6667 20C31.6667 22.002 30.0567 23.612 26.8343 26.8343C23.612 30.0555 22.002 31.6667 20 31.6667C17.998 31.6667 16.388 30.0567 13.1657 26.8343C9.94451 23.612 8.33334 22.002 8.33334 20C8.33334 17.998 9.94334 16.388 13.1657 13.1657ZM22.1537 15.8607C22.0698 15.7821 21.9713 15.7208 21.8637 15.6802C21.7561 15.6397 21.6416 15.6208 21.5267 15.6245C21.4118 15.6283 21.2988 15.6546 21.1941 15.702C21.0894 15.7495 20.995 15.817 20.9164 15.9009C20.8378 15.9848 20.7765 16.0833 20.736 16.1909C20.6955 16.2985 20.6766 16.413 20.6803 16.5279C20.684 16.6428 20.7104 16.7558 20.7578 16.8605C20.8052 16.9652 20.8728 17.0596 20.9567 17.1382L22.4535 18.5417H18.4448C17.7973 18.5417 16.8372 18.7167 16.01 19.2743C15.1373 19.8635 14.4583 20.8575 14.4583 22.3333C14.4583 22.5654 14.5505 22.788 14.7146 22.952C14.8787 23.1161 15.1013 23.2083 15.3333 23.2083C15.5654 23.2083 15.788 23.1161 15.9521 22.952C16.1162 22.788 16.2083 22.5654 16.2083 22.3333C16.2083 21.4758 16.5665 21.0115 16.99 20.7257C17.425 20.4483 17.9289 20.2979 18.4448 20.2917H22.4535L20.9567 21.6952C20.7914 21.8548 20.6955 22.0731 20.6898 22.3029C20.6842 22.5327 20.7691 22.7554 20.9263 22.9231C21.0836 23.0907 21.3004 23.1898 21.5301 23.1988C21.7597 23.2079 21.9837 23.1262 22.1537 22.9715L25.2652 20.0548C25.3524 19.973 25.4219 19.8741 25.4695 19.7644C25.517 19.6546 25.5415 19.5363 25.5415 19.4167C25.5415 19.297 25.517 19.1787 25.4695 19.0689C25.4219 18.9592 25.3524 18.8603 25.2652 18.7785L22.1537 15.8618V15.8607Z" fill="#7994B7"/>
</svg>
