<svg width="21" height="20" viewBox="0 0 21 20" fill="none" xmlns="http://www.w3.org/2000/svg">
<path d="M9.1 5.86C9.53 6.55 9.84 7.29 10.03 8.08C10.36 7.89 10.765 7.795 11.245 7.795C11.865 7.795 12.5 7.96 13.15 8.29C13.8 8.61 14.34 9.04 14.77 9.58C15.2 10.12 15.415 10.7 15.415 11.32C15.415 11.75 15.285 12.15 15.025 12.52C14.775 12.88 14.425 13.175 13.975 13.405C13.535 13.625 13.035 13.74 12.475 13.75L11.245 12.76V12.115C11.445 12.145 11.635 12.16 11.815 12.16C12.295 12.16 12.66 12.015 12.91 11.725C13.17 11.425 13.3 11.045 13.3 10.585C13.3 10.105 13.205 9.735 13.015 9.475C12.825 9.215 12.54 9.085 12.16 9.085C11.84 9.085 11.555 9.165 11.305 9.325C11.055 9.485 10.85 9.665 10.69 9.865C10.54 10.065 10.325 10.375 10.045 10.795C9.895 11.285 9.665 11.705 9.355 12.055C9.045 12.395 8.72 12.63 8.38 12.76L12.07 15.85L11.545 16.465L6.535 12.28C6.115 11.98 5.755 11.63 5.455 11.23C5.155 10.83 5.005 10.485 5.005 10.195C5.005 9.915 5.115 9.705 5.335 9.565C5.565 9.415 5.88 9.34 6.28 9.34C6.77 9.34 7.335 9.43 7.975 9.61C8.035 9.31 8.065 8.985 8.065 8.635C8.065 8.155 8.005 7.665 7.885 7.165C7.775 6.665 7.63 6.225 7.45 5.845H3.67L2.335 4.855V4.21H16.615L17.875 5.2V5.845L9.1 5.86Z" fill="#7994B7"/>
</svg>
