<svg width="40" height="40" viewBox="0 0 40 40" fill="none" xmlns="http://www.w3.org/2000/svg">
<rect width="40" height="40" rx="6" fill="#F1F6FE"/>
<g clip-path="url(#clip0_120_19181)">
<path d="M29.31 12.9847L28.7117 13.583C28.4071 13.8876 27.994 14.0587 27.5633 14.0587C27.1325 14.0587 26.7194 13.8876 26.4148 13.583C26.1103 13.2784 25.9391 12.8653 25.9391 12.4345C25.9391 12.0038 26.1103 11.5907 26.4148 11.2861L27.0131 10.6878L23.2003 6.875L18.3878 11.6875L18.1691 12.3487L17.5079 12.5674L6.875 23.2003L10.69 27.0153L11.2883 26.417C11.5929 26.1124 12.006 25.9413 12.4367 25.9413C12.8675 25.9413 13.2806 26.1124 13.5852 26.417C13.8897 26.7216 14.0609 27.1347 14.0609 27.5655C14.0609 27.9962 13.8897 28.4093 13.5852 28.7139L12.9869 29.3122L16.7997 33.125L27.4309 22.4938L27.6497 21.8326L28.3109 21.6138L33.1234 16.8013L29.31 12.9847ZM17.9044 13.2816L19.1004 12.0856L20.9051 13.8903L19.7085 15.0863L17.9044 13.2816ZM20.2559 15.6332L21.4525 14.4366L23.2309 16.2151L22.0344 17.4116L20.2559 15.6332ZM22.5834 17.9607L23.78 16.7641L25.5584 18.5426L24.3641 19.7419L22.5834 17.9607ZM26.7162 22.0929L24.9115 20.2882L26.1075 19.0916L27.9122 20.8963L26.7162 22.0929Z" fill="#7994B7"/>
</g>
<defs>
<clipPath id="clip0_120_19181">
<rect width="28" height="28" fill="white" transform="translate(6 6)"/>
</clipPath>
</defs>
</svg>
