<svg width="21" height="20" viewBox="0 0 21 20" fill="none" xmlns="http://www.w3.org/2000/svg">
<path d="M2.75 5.00008H4.41667M4.41667 5.00008H17.75M4.41667 5.00008V16.6667C4.41667 17.1088 4.59226 17.5327 4.90482 17.8453C5.21738 18.1578 5.64131 18.3334 6.08333 18.3334H14.4167C14.8587 18.3334 15.2826 18.1578 15.5952 17.8453C15.9077 17.5327 16.0833 17.1088 16.0833 16.6667V5.00008H4.41667ZM6.91667 5.00008V3.33341C6.91667 2.89139 7.09226 2.46746 7.40482 2.1549C7.71738 1.84234 8.14131 1.66675 8.58333 1.66675H11.9167C12.3587 1.66675 12.7826 1.84234 13.0952 2.1549C13.4077 2.46746 13.5833 2.89139 13.5833 3.33341V5.00008M8.58333 9.16675V14.1667M11.9167 9.16675V14.1667" stroke="#B3261E" stroke-width="1.66667" stroke-linecap="round" stroke-linejoin="round"/>
</svg>
