<svg width="21" height="20" viewBox="0 0 21 20" fill="none" xmlns="http://www.w3.org/2000/svg">
<path fill-rule="evenodd" clip-rule="evenodd" d="M9.02748 3.17578C8.6794 3.22639 8.34477 3.34537 8.04287 3.52585C7.74096 3.70634 7.47774 3.94477 7.26838 4.22741C7.05901 4.51005 6.90762 4.83132 6.82295 5.17272C6.73827 5.51412 6.72197 5.86889 6.77498 6.21662L6.79998 6.38578C6.83331 6.59662 6.88831 6.80245 6.96581 7.00078L7.72831 8.95245C9.55274 8.82853 11.3838 8.8394 13.2066 8.98495L14.4533 9.08495C14.8452 9.11628 15.2154 9.278 15.5046 9.5443C15.7939 9.8106 15.9856 10.1661 16.0491 10.5541C16.3505 12.3946 16.3505 14.2719 16.0491 16.1124C15.9858 16.5006 15.7941 16.8563 15.5048 17.1228C15.2156 17.3892 14.8454 17.5511 14.4533 17.5824L13.2066 17.6824C11.2381 17.8395 9.26018 17.8395 7.29165 17.6824L6.04498 17.5824C5.65294 17.5511 5.28272 17.3892 4.99345 17.1228C4.70418 16.8563 4.51254 16.5006 4.44915 16.1124C4.14781 14.2719 4.14781 12.3946 4.44915 10.5541C4.51241 10.1657 4.70409 9.80968 4.99355 9.54304C5.283 9.2764 5.6535 9.11452 6.04581 9.08328L6.42665 9.05328L5.80165 7.45495C5.69113 7.17117 5.61232 6.87604 5.56665 6.57495L5.54081 6.40495C5.39585 5.45215 5.60728 4.47935 6.13464 3.67267C6.66201 2.866 7.46828 2.28208 8.3992 2.03263C9.33013 1.78319 10.3203 1.88574 11.1804 2.32065C12.0404 2.75557 12.7099 3.49232 13.0608 4.38995L13.1233 4.55078C13.2341 4.83412 13.3133 5.12995 13.3591 5.43162L13.4766 6.20495C13.4849 6.25907 13.4825 6.31429 13.4694 6.36746C13.4563 6.42063 13.4329 6.4707 13.4005 6.51481C13.3681 6.55892 13.3273 6.59621 13.2804 6.62455C13.2336 6.65288 13.1816 6.67171 13.1275 6.67995L12.7158 6.74245C12.6617 6.75074 12.6065 6.74828 12.5533 6.73521C12.5001 6.72215 12.4501 6.69873 12.406 6.66631C12.3618 6.63388 12.3245 6.59307 12.2962 6.54623C12.2679 6.49938 12.2491 6.44741 12.2408 6.39328L12.1241 5.61995C12.092 5.40948 12.0367 5.20323 11.9591 5.00495L11.8966 4.84495C11.6774 4.2837 11.2744 3.81326 10.7536 3.5103C10.2327 3.20735 9.62459 3.08973 9.02831 3.17661L9.02748 3.17578ZM10.25 12.0833C9.91846 12.0833 9.60052 12.215 9.3661 12.4494C9.13168 12.6838 8.99998 13.0018 8.99998 13.3333C8.99998 13.6648 9.13168 13.9827 9.3661 14.2172C9.60052 14.4516 9.91846 14.5833 10.25 14.5833C10.5815 14.5833 10.8994 14.4516 11.1339 14.2172C11.3683 13.9827 11.5 13.6648 11.5 13.3333C11.5 13.0018 11.3683 12.6838 11.1339 12.4494C10.8994 12.215 10.5815 12.0833 10.25 12.0833Z" fill="#0F7F06"/>
</svg>
