<svg width="15" height="14" viewBox="0 0 15 14" fill="none" xmlns="http://www.w3.org/2000/svg">
<path fill-rule="evenodd" clip-rule="evenodd" d="M1.77992 6.7835C1.77992 10.0304 4.13406 12.2427 6.77832 12.7003C6.85025 12.7128 6.91902 12.7393 6.98071 12.7783C7.04239 12.8174 7.09578 12.8682 7.13783 12.9279C7.17987 12.9875 7.20975 13.0549 7.22576 13.1261C7.24177 13.1974 7.24359 13.271 7.23112 13.343C7.21866 13.4149 7.19214 13.4837 7.1531 13.5453C7.11406 13.607 7.06325 13.6604 7.00357 13.7025C6.94389 13.7445 6.87652 13.7744 6.80529 13.7904C6.73407 13.8064 6.66039 13.8082 6.58846 13.7958C3.48339 13.2582 0.668457 10.6406 0.668457 6.7835C0.668457 5.14403 1.41406 3.8555 2.28446 2.8763C2.90846 2.17443 3.62206 1.60376 4.19592 1.1675H2.45086C2.30941 1.1675 2.17375 1.11131 2.07373 1.01129C1.97371 0.911268 1.91752 0.775612 1.91752 0.634163C1.91752 0.492715 1.97371 0.357059 2.07373 0.25704C2.17375 0.157021 2.30941 0.10083 2.45086 0.10083H5.65086C5.79231 0.10083 5.92796 0.157021 6.02798 0.25704C6.128 0.357059 6.18419 0.492715 6.18419 0.634163V3.83416C6.18419 3.97561 6.128 4.11127 6.02798 4.21129C5.92796 4.31131 5.79231 4.3675 5.65086 4.3675C5.50941 4.3675 5.37375 4.31131 5.27373 4.21129C5.17371 4.11127 5.11752 3.97561 5.11752 3.83416V1.8651L5.11646 1.86723C4.50632 2.3259 3.76179 2.88803 3.11646 3.61443C2.35379 4.47203 1.77992 5.5099 1.77992 6.7835ZM13.6285 7.21656C13.6285 4.00376 11.3245 1.80536 8.71432 1.3147C8.64158 1.30235 8.57201 1.27565 8.5097 1.23613C8.44738 1.19662 8.39356 1.14509 8.35137 1.08456C8.30917 1.02402 8.27946 0.955691 8.26396 0.88355C8.24846 0.811409 8.24748 0.736903 8.26107 0.664379C8.27467 0.591855 8.30258 0.522765 8.34316 0.46114C8.38374 0.399515 8.43619 0.346589 8.49745 0.30545C8.5587 0.264311 8.62754 0.235782 8.69994 0.221528C8.77233 0.207275 8.84685 0.207581 8.91912 0.22243C11.9847 0.79843 14.7399 3.4011 14.7399 7.21656C14.7399 8.85603 13.9943 10.1435 13.1239 11.1238C12.4999 11.8256 11.7863 12.3963 11.2125 12.8326H12.9575C13.099 12.8326 13.2346 12.8888 13.3346 12.9888C13.4347 13.0888 13.4909 13.2244 13.4909 13.3659C13.4909 13.5073 13.4347 13.643 13.3346 13.743C13.2346 13.843 13.099 13.8992 12.9575 13.8992H9.75752C9.61608 13.8992 9.48042 13.843 9.3804 13.743C9.28038 13.643 9.22419 13.5073 9.22419 13.3659V10.1659C9.22419 10.0244 9.28038 9.88879 9.3804 9.78877C9.48042 9.68876 9.61608 9.63256 9.75752 9.63256C9.89897 9.63256 10.0346 9.68876 10.1346 9.78877C10.2347 9.88879 10.2909 10.0244 10.2909 10.1659V12.1339H10.293C10.9021 11.6731 11.6477 11.112 12.2919 10.3846C13.0546 9.52803 13.6285 8.49123 13.6285 7.21656Z" fill="#072D5F"/>
</svg>
